<svg width="188" height="739" viewBox="0 0 188 739" fill="none" xmlns="http://www.w3.org/2000/svg">
<path d="M151.75 620.75V690.25L185 701.75V738.5L10.25 675.75V635L185 572.25V609.25L151.75 620.75ZM123.75 630.25L50.75 655.5L123.75 680.75V630.25ZM66.75 513.795C60.0833 509.295 54.6667 503.128 50.5 495.295C46.3333 487.295 44.25 478.212 44.25 468.045C44.25 456.212 47.1667 445.545 53 436.045C58.8333 426.378 67.1667 418.795 78 413.295C88.6667 407.628 101.083 404.795 115.25 404.795C129.417 404.795 142 407.628 153 413.295C163.833 418.795 172.25 426.378 178.25 436.045C184.25 445.545 187.25 456.212 187.25 468.045C187.25 478.378 185.25 487.462 181.25 495.295C177.083 502.962 171.75 509.128 165.25 513.795H185V548.795H-2.38419e-06V513.795H66.75ZM115.25 440.545C106.917 440.545 99.75 442.295 93.75 445.795C87.5833 449.128 82.9167 453.628 79.75 459.295C76.5833 464.795 75 470.795 75 477.295C75 483.628 76.6667 489.628 80 495.295C83.1667 500.795 87.8333 505.295 94 508.795C100.167 512.128 107.417 513.795 115.75 513.795C124.083 513.795 131.333 512.128 137.5 508.795C143.667 505.295 148.417 500.795 151.75 495.295C154.917 489.628 156.5 483.628 156.5 477.295C156.5 470.795 154.833 464.795 151.5 459.295C148.167 453.628 143.417 449.128 137.25 445.795C131.083 442.295 123.75 440.545 115.25 440.545ZM187.25 317.861C187.25 331.195 184.333 343.195 178.5 353.861C172.5 364.528 164.083 372.945 153.25 379.111C142.417 385.111 129.917 388.111 115.75 388.111C101.583 388.111 89.0833 385.028 78.25 378.861C67.4167 372.528 59.0833 363.945 53.25 353.111C47.25 342.278 44.25 330.195 44.25 316.861C44.25 303.528 47.25 291.445 53.25 280.611C59.0833 269.778 67.4167 261.278 78.25 255.111C89.0833 248.778 101.583 245.611 115.75 245.611C129.917 245.611 142.417 248.861 153.25 255.361C164.083 261.695 172.5 270.361 178.5 281.361C184.333 292.195 187.25 304.361 187.25 317.861ZM156.75 317.861C156.75 311.528 155.25 305.611 152.25 300.111C149.083 294.445 144.417 289.945 138.25 286.611C132.083 283.278 124.583 281.611 115.75 281.611C102.583 281.611 92.5 285.111 85.5 292.111C78.3333 298.945 74.75 307.361 74.75 317.361C74.75 327.361 78.3333 335.778 85.5 342.611C92.5 349.278 102.583 352.611 115.75 352.611C128.917 352.611 139.083 349.361 146.25 342.861C153.25 336.195 156.75 327.861 156.75 317.861ZM46.5 89.1875H185V124.437H167.5C173.5 128.937 178.25 134.854 181.75 142.187C185.083 149.354 186.75 157.187 186.75 165.687C186.75 176.521 184.5 186.104 180 194.437C175.333 202.771 168.583 209.354 159.75 214.187C150.75 218.854 140.083 221.187 127.75 221.187H46.5V186.187H122.75C133.75 186.187 142.25 183.437 148.25 177.937C154.083 172.437 157 164.937 157 155.437C157 145.771 154.083 138.187 148.25 132.687C142.25 127.187 133.75 124.437 122.75 124.437H46.5V89.1875ZM75.25 13.9043H142.25C146.917 13.9043 150.333 12.821 152.5 10.6543C154.5 8.32096 155.5 4.48763 155.5 -0.845705V-17.0957H185V4.9043C185 34.4043 170.667 49.1543 142 49.1543H75.25V65.6543H46.5V49.1543H12.25V13.9043H46.5V-17.0957H75.25V13.9043Z" fill="white" fill-opacity="0.13"/>
</svg>
