<svg width="177" height="981" viewBox="0 0 177 981" fill="none" xmlns="http://www.w3.org/2000/svg">
<path d="M88.25 980.425C71.4267 980.425 56.4 976.668 43.17 969.155C29.7767 961.478 19.405 951.107 12.055 938.04C4.54166 924.81 0.784996 910.028 0.784996 893.695C0.784996 874.585 5.685 857.843 15.485 843.47C25.285 829.097 38.8417 819.052 56.155 813.335V852.78C47.9883 856.7 41.8633 862.253 37.78 869.44C33.6967 876.463 31.655 884.63 31.655 893.94C31.655 903.903 34.0233 912.805 38.76 920.645C43.3333 928.322 49.8667 934.365 58.36 938.775C66.8533 943.022 76.8167 945.145 88.25 945.145C99.52 945.145 109.483 943.022 118.14 938.775C126.633 934.365 133.248 928.322 137.985 920.645C142.558 912.805 144.845 903.903 144.845 893.94C144.845 884.63 142.803 876.463 138.72 869.44C134.473 862.253 128.267 856.7 120.1 852.78V813.335C137.577 819.052 151.215 829.097 161.015 843.47C170.652 857.68 175.47 874.422 175.47 893.695C175.47 910.028 171.795 924.81 164.445 938.04C156.932 951.107 146.56 961.478 133.33 969.155C120.1 976.668 105.073 980.425 88.25 980.425ZM176.205 723.768C176.205 736.835 173.347 748.595 167.63 759.048C161.75 769.502 153.502 777.75 142.885 783.793C132.268 789.673 120.018 792.613 106.135 792.613C92.2517 792.613 80.0017 789.592 69.385 783.548C58.7683 777.342 50.6017 768.93 44.885 758.313C39.005 747.697 36.065 735.855 36.065 722.788C36.065 709.722 39.005 697.88 44.885 687.263C50.6017 676.647 58.7683 668.317 69.385 662.273C80.0017 656.067 92.2517 652.963 106.135 652.963C120.018 652.963 132.268 656.148 142.885 662.518C153.502 668.725 161.75 677.218 167.63 687.998C173.347 698.615 176.205 710.538 176.205 723.768ZM146.315 723.768C146.315 717.562 144.845 711.763 141.905 706.373C138.802 700.82 134.228 696.41 128.185 693.143C122.142 689.877 114.792 688.243 106.135 688.243C93.2317 688.243 83.35 691.673 76.49 698.533C69.4667 705.23 65.955 713.478 65.955 723.278C65.955 733.078 69.4667 741.327 76.49 748.023C83.35 754.557 93.2317 757.823 106.135 757.823C119.038 757.823 129.002 754.638 136.025 748.268C142.885 741.735 146.315 733.568 146.315 723.768ZM36.31 552.588C36.31 536.418 41.455 523.351 51.745 513.388C61.8717 503.425 76.0817 498.443 94.375 498.443H174V532.743H99.03C88.25 532.743 80.0017 535.438 74.285 540.828C68.405 546.218 65.465 553.568 65.465 562.878C65.465 572.351 68.405 579.865 74.285 585.418C80.0017 590.808 88.25 593.503 99.03 593.503H174V627.803H38.27V593.503H55.175C49.295 588.93 44.7217 583.131 41.455 576.108C38.025 568.921 36.31 561.081 36.31 552.588ZM66.445 425.89H132.105C136.678 425.89 140.027 424.829 142.15 422.705C144.11 420.419 145.09 416.662 145.09 411.435V395.51H174L174 417.07C174 445.98 159.953 460.435 131.86 460.435H66.445V476.605H38.27V460.435H4.70499V425.89H38.27V395.51H66.445V425.89ZM105.645 379.66C91.925 379.66 79.7567 376.965 69.14 371.575C58.5233 366.022 50.3567 358.59 44.64 349.28C38.9233 339.807 36.065 329.272 36.065 317.675C36.065 307.548 38.1067 298.728 42.19 291.215C46.2733 283.538 51.4183 277.413 57.625 272.84H38.27V238.295H174V272.84H154.155C160.525 277.25 165.833 283.375 170.08 291.215C174.163 298.892 176.205 307.793 176.205 317.92C176.205 329.353 173.265 339.807 167.385 349.28C161.505 358.59 153.257 366.022 142.64 371.575C131.86 376.965 119.528 379.66 105.645 379.66ZM106.135 272.84C97.805 272.84 90.7 274.473 84.82 277.74C78.7767 281.007 74.2033 285.417 71.1 290.97C67.8333 296.523 66.2 302.485 66.2 308.855C66.2 315.225 67.7517 321.105 70.855 326.495C73.9583 331.885 78.5317 336.295 84.575 339.725C90.455 342.992 97.4783 344.625 105.645 344.625C113.812 344.625 120.998 342.992 127.205 339.725C133.248 336.295 137.903 331.885 141.17 326.495C144.437 320.942 146.07 315.062 146.07 308.855C146.07 302.485 144.518 296.523 141.415 290.97C138.148 285.417 133.575 281.007 127.695 277.74C121.652 274.473 114.465 272.84 106.135 272.84ZM106.135 213.615C92.0883 213.615 79.8383 210.757 69.385 205.04C58.7683 199.324 50.6017 191.402 44.885 181.275C39.005 171.149 36.065 159.552 36.065 146.485C36.065 129.662 40.3117 115.779 48.805 104.835C57.135 93.7285 68.895 86.2969 84.085 82.5402L84.085 119.535C78.205 121.495 73.6317 124.844 70.365 129.58C66.935 134.154 65.22 139.87 65.22 146.73C65.22 156.53 68.8133 164.289 76 170.005C83.0233 175.722 93.0683 178.58 106.135 178.58C119.038 178.58 129.083 175.722 136.27 170.005C143.293 164.289 146.805 156.53 146.805 146.73C146.805 132.847 140.598 123.782 128.185 119.535L128.185 82.5402C142.885 86.2969 154.563 93.7285 163.22 104.835C171.877 115.942 176.205 129.825 176.205 146.485C176.205 159.552 173.347 171.149 167.63 181.275C161.75 191.402 153.583 199.324 143.13 205.04C132.513 210.757 120.182 213.615 106.135 213.615ZM66.445 17.4774H132.105C136.678 17.4774 140.027 16.4157 142.15 14.2924C144.11 12.0057 145.09 8.24905 145.09 3.02238V-12.9026H174V8.65738C174 37.5674 159.953 52.0224 131.86 52.0224H66.445V68.1924H38.27V52.0224H4.70499V17.4774H38.27V-12.9026H66.445V17.4774Z" fill="white" fill-opacity="0.13"/>
</svg>
