<svg width="202" height="942" viewBox="0 0 202 942" fill="none" xmlns="http://www.w3.org/2000/svg">
<path d="M164.54 884.8C164.54 895.507 162.707 905.187 159.04 913.84C155.373 922.347 150.093 929.093 143.2 934.08C136.307 939.067 128.167 941.633 118.78 941.78V908.78C125.087 908.34 130.073 906.14 133.74 902.18C137.407 898.073 139.24 892.5 139.24 885.46C139.24 878.273 137.553 872.627 134.18 868.52C130.66 864.413 126.113 862.36 120.54 862.36C115.993 862.36 112.253 863.753 109.32 866.54C106.387 869.327 104.113 872.847 102.5 877.1C100.74 881.207 98.8333 886.927 96.78 894.26C93.8467 904.233 90.9867 912.373 88.2 918.68C85.2667 924.84 80.94 930.193 75.22 934.74C69.3533 939.14 61.58 941.34 51.9 941.34C42.8067 941.34 34.8867 939.067 28.14 934.52C21.3933 929.973 16.26 923.593 12.74 915.38C9.07333 907.167 7.24 897.78 7.24 887.22C7.24 871.38 11.1267 858.547 18.9 848.72C26.5267 838.747 37.2333 833.247 51.02 832.22V866.1C45.74 866.393 41.4133 868.667 38.04 872.92C34.52 877.027 32.76 882.527 32.76 889.42C32.76 895.433 34.3 900.273 37.38 903.94C40.46 907.46 44.9333 909.22 50.8 909.22C54.9067 909.22 58.3533 907.9 61.14 905.26C63.78 902.473 65.98 899.1 67.74 895.14C69.3533 891.033 71.26 885.313 73.46 877.98C76.3933 868.007 79.3267 859.867 82.26 853.56C85.1933 847.253 89.5933 841.827 95.46 837.28C101.327 832.733 109.027 830.46 118.56 830.46C126.773 830.46 134.4 832.587 141.44 836.84C148.48 841.093 154.127 847.327 158.38 855.54C162.487 863.753 164.54 873.507 164.54 884.8ZM101.62 811.678C89.3 811.678 78.3733 809.258 68.84 804.418C59.3067 799.431 51.9733 792.757 46.84 784.397C41.7067 775.891 39.14 766.431 39.14 756.017C39.14 746.924 40.9733 739.004 44.64 732.257C48.3067 725.364 52.9267 719.864 58.5 715.757H41.12V684.737H163V715.757H145.18C150.9 719.717 155.667 725.217 159.48 732.257C163.147 739.151 164.98 747.144 164.98 756.237C164.98 766.504 162.34 775.891 157.06 784.397C151.78 792.757 144.373 799.431 134.84 804.418C125.16 809.258 114.087 811.678 101.62 811.678ZM102.06 715.757C94.58 715.757 88.2 717.224 82.92 720.157C77.4933 723.091 73.3867 727.051 70.6 732.037C67.6667 737.024 66.2 742.377 66.2 748.097C66.2 753.817 67.5933 759.097 70.38 763.938C73.1667 768.777 77.2733 772.737 82.7 775.817C87.98 778.751 94.2867 780.217 101.62 780.217C108.953 780.217 115.407 778.751 120.98 775.817C126.407 772.737 130.587 768.777 133.52 763.938C136.453 758.951 137.92 753.671 137.92 748.097C137.92 742.377 136.527 737.024 133.74 732.037C130.807 727.051 126.7 723.091 121.42 720.157C115.993 717.224 109.54 715.757 102.06 715.757ZM41.12 538.056L220.64 613.516V646.296L159.92 619.896L41.12 668.736V634.196L126.26 602.736L41.12 570.836V538.056ZM9.44 341.651H163V372.451H97.66V438.231H163V469.031H9.44V438.231H72.58V372.451H9.44V341.651ZM99.42 198.036C103.82 198.036 107.78 198.329 111.3 198.916V288.016C120.1 287.282 126.993 284.202 131.98 278.776C136.967 273.349 139.46 266.676 139.46 258.756C139.46 247.316 134.547 239.176 124.72 234.336V201.116C136.453 204.636 146.133 211.382 153.76 221.356C161.24 231.329 164.98 243.576 164.98 258.096C164.98 269.829 162.413 280.389 157.28 289.776C152 299.016 144.593 306.276 135.06 311.556C125.527 316.689 114.527 319.256 102.06 319.256C89.4467 319.256 78.3733 316.689 68.84 311.556C59.3067 306.422 51.9733 299.236 46.84 289.996C41.7067 280.756 39.14 270.122 39.14 258.096C39.14 246.509 41.6333 236.169 46.62 227.076C51.6067 217.836 58.72 210.722 67.96 205.736C77.0533 200.602 87.54 198.036 99.42 198.036ZM90.62 229.936C82.7 230.082 76.3933 232.942 71.7 238.516C66.86 244.089 64.44 250.909 64.44 258.976C64.44 266.602 66.7867 273.056 71.48 278.336C76.0267 283.469 82.4067 286.622 90.62 287.796V229.936ZM0.199998 144.754H163V175.554H0.199998V144.754ZM0.199998 83.5239H163V114.324H0.199998V83.5239ZM164.98 -1.02657C164.98 10.7068 162.413 21.2668 157.28 30.6534C152 40.0401 144.593 47.4468 135.06 52.8734C125.527 58.1534 114.527 60.7934 102.06 60.7934C89.5933 60.7934 78.5933 58.0801 69.06 52.6534C59.5267 47.0801 52.1933 39.5268 47.06 29.9934C41.78 20.4601 39.14 9.82677 39.14 -1.90656C39.14 -13.6399 41.78 -24.2732 47.06 -33.8066C52.1933 -43.3399 59.5267 -50.8199 69.06 -56.2466C78.5933 -61.8199 89.5933 -64.6066 102.06 -64.6066C114.527 -64.6066 125.527 -61.7466 135.06 -56.0266C144.593 -50.4532 152 -42.8266 157.28 -33.1466C162.413 -23.6132 164.98 -12.9066 164.98 -1.02657ZM138.14 -1.02657C138.14 -6.5999 136.82 -11.8066 134.18 -16.6466C131.393 -21.6332 127.287 -25.5932 121.86 -28.5266C116.433 -31.4599 109.833 -32.9266 102.06 -32.9266C90.4733 -32.9266 81.6 -29.8466 75.44 -23.6866C69.1333 -17.6732 65.98 -10.2666 65.98 -1.46656C65.98 7.33344 69.1333 14.7401 75.44 20.7534C81.6 26.6201 90.4733 29.5534 102.06 29.5534C113.647 29.5534 122.593 26.6934 128.9 20.9734C135.06 15.1068 138.14 7.77343 138.14 -1.02657Z" fill="white" fill-opacity="0.13"/>
</svg>
