<svg width="188" height="607" viewBox="0 0 188 607" fill="none" xmlns="http://www.w3.org/2000/svg">
<path d="M10.5 361.5L185 410.25V451.5L60.75 484.25L185 518.5L185.25 559.5L10.5 606.5V569L146 538.25L10.5 502.75L10.5 463.75L145.25 430.25L10.5 399.25V361.5ZM187.25 277.146C187.25 290.48 184.333 302.48 178.5 313.146C172.5 323.813 164.083 332.23 153.25 338.396C142.417 344.396 129.917 347.396 115.75 347.396C101.583 347.396 89.0833 344.313 78.25 338.146C67.4167 331.813 59.0833 323.23 53.25 312.396C47.25 301.563 44.25 289.48 44.25 276.146C44.25 262.813 47.25 250.73 53.25 239.896C59.0833 229.063 67.4167 220.563 78.25 214.396C89.0833 208.063 101.583 204.896 115.75 204.896C129.917 204.896 142.417 208.146 153.25 214.646C164.083 220.98 172.5 229.646 178.5 240.646C184.333 251.48 187.25 263.646 187.25 277.146ZM156.75 277.146C156.75 270.813 155.25 264.896 152.25 259.396C149.083 253.73 144.417 249.23 138.25 245.896C132.083 242.563 124.583 240.896 115.75 240.896C102.583 240.896 92.5 244.396 85.5 251.396C78.3333 258.23 74.75 266.646 74.75 276.646C74.75 286.646 78.3333 295.063 85.5 301.896C92.5 308.563 102.583 311.896 115.75 311.896C128.917 311.896 139.083 308.646 146.25 302.146C153.25 295.48 156.75 287.146 156.75 277.146ZM68 144.223C60.6667 139.723 54.9167 133.889 50.75 126.723C46.5833 119.389 44.5 111.056 44.5 101.723H81.25V110.973C81.25 121.973 83.8333 130.306 89 135.973C94.1667 141.473 103.167 144.223 116 144.223H185V179.223H46.5V144.223H68ZM185 -3.85157L126 43.1484H185V78.1484H-2.38419e-06V43.1484H105.25L46.5 -3.35157V-48.8516L116 12.1484L185 -49.3516V-3.85157Z" fill="white" fill-opacity="0.13"/>
</svg>
